<svg width="88" height="88" viewBox="0 0 88 88" fill="none" xmlns="http://www.w3.org/2000/svg">
<path d="M33 63.8L63.8 44L33 24.2V63.8ZM44 88C37.9133 88 32.1933 86.8443 26.84 84.5328C21.4867 82.2243 16.83 79.09 12.87 75.13C8.91 71.17 5.77573 66.5133 3.4672 61.16C1.15573 55.8067 0 50.0867 0 44C0 37.9133 1.15573 32.1933 3.4672 26.84C5.77573 21.4867 8.91 16.83 12.87 12.87C16.83 8.91 21.4867 5.77427 26.84 3.4628C32.1933 1.15427 37.9133 0 44 0C50.0867 0 55.8067 1.15427 61.16 3.4628C66.5133 5.77427 71.17 8.91 75.13 12.87C79.09 16.83 82.2243 21.4867 84.5328 26.84C86.8443 32.1933 88 37.9133 88 44C88 50.0867 86.8443 55.8067 84.5328 61.16C82.2243 66.5133 79.09 71.17 75.13 75.13C71.17 79.09 66.5133 82.2243 61.16 84.5328C55.8067 86.8443 50.0867 88 44 88ZM44 79.2C53.8267 79.2 62.15 75.79 68.97 68.97C75.79 62.15 79.2 53.8267 79.2 44C79.2 34.1733 75.79 25.85 68.97 19.03C62.15 12.21 53.8267 8.8 44 8.8C34.1733 8.8 25.85 12.21 19.03 19.03C12.21 25.85 8.8 34.1733 8.8 44C8.8 53.8267 12.21 62.15 19.03 68.97C25.85 75.79 34.1733 79.2 44 79.2Z" fill="white"/>
</svg>
